<svg width="64" height="65" viewBox="0 0 64 65" fill="none" xmlns="http://www.w3.org/2000/svg">
<g clip-path="url(#clip0_1088_1119)">
<mask id="mask0_1088_1119" style="mask-type:luminance" maskUnits="userSpaceOnUse" x="0" y="0" width="64" height="65">
<path d="M0 0.5H64V64.5H0V0.5Z" fill="white"/>
</mask>
<g mask="url(#mask0_1088_1119)">
<mask id="mask1_1088_1119" style="mask-type:luminance" maskUnits="userSpaceOnUse" x="0" y="0" width="64" height="65">
<path d="M0 0.5H64V64.5H0V0.5Z" fill="white"/>
</mask>
<g mask="url(#mask1_1088_1119)">
<path fill-rule="evenodd" clip-rule="evenodd" d="M0.8125 63.6875H48.1625L17.175 32.2625L49.3375 32.3L0.825 1.3125V63.6875H0.8125Z" fill="#CE0000" stroke="#000063" stroke-width="1.625"/>
<path fill-rule="evenodd" clip-rule="evenodd" d="M22.5875 46.975L19.2125 48.1L21.8625 50.575L18.3 50.35L19.7625 53.625L16.575 52.0875L16.6375 55.6625L14.2875 53.05L12.95 56.375L11.8 53.0875L9.2625 55.6625L9.4875 52.2L6.125 53.625L7.7 50.5L4.0375 50.575L6.725 48.2875L3.3125 46.975L6.6875 45.85L4.025 43.375L7.575 43.6L6.125 40.325L9.325 41.8625L9.2625 38.2875L11.6125 40.9L12.95 37.575L14.0875 40.8625L16.6375 38.2875L16.4 41.75L19.775 40.325L18.1875 43.45L21.8625 43.375L19.175 45.6625L22.5875 46.975ZM18.5375 23.8875L17.125 24.9375L17.825 25.5125C19.4677 24.365 20.7889 22.8158 21.6625 21.0125C21.8875 23.675 19.45 29.6375 13.075 29.7C11.9098 29.7149 10.7532 29.4988 9.67193 29.0643C8.59067 28.6298 7.60617 27.9855 6.77524 27.1685C5.94431 26.3515 5.28341 25.3781 4.83068 24.3043C4.37795 23.2306 4.14236 22.0778 4.1375 20.9125C5.3875 23.1875 6.1625 24.2875 8.1375 25.475L8.725 24.925L7.4 23.8125L9.1125 23.3625L8.1875 21.8125L9.9875 21.9375L9.7625 20.1375L11.3375 21.0625L11.8375 19.375L12.9625 20.725L14.025 19.4375L14.6 21.1875L16.075 20.1625L15.8875 21.95L17.6625 21.7375L16.825 23.3875L18.5375 23.8875Z" fill="white"/>
</g>
</g>
</g>
<defs>
<clipPath id="clip0_1088_1119">
<rect width="64" height="64" fill="white" transform="translate(0 0.5)"/>
</clipPath>
</defs>
</svg>
