<svg width="72" height="72" viewBox="0 0 72 72" fill="none" xmlns="http://www.w3.org/2000/svg">
<path d="M8.99976 9L17.9998 9V18H8.99976L8.99976 9Z" fill="#FFD700"/>
<path d="M26.9998 0.000976563L26.9998 27.001L-0.000244141 27.001L-0.000244141 0.000976562L26.9998 0.000976563ZM22.4998 4.50098L4.49976 4.50098L4.49976 22.501L22.4998 22.501L22.4998 4.50098ZM17.9998 54.001H8.99976L8.99976 63.001H17.9998V54.001Z" fill="#FFD700"/>
<path d="M26.9998 45L26.9998 72H-0.000244141L-0.000244141 45H26.9998ZM4.49976 49.5L4.49976 67.5H22.4998L22.4998 49.5H4.49976ZM53.9998 9L62.9998 9V18H53.9998V9Z" fill="#FFD700"/>
<path d="M44.9998 0.000976563V27.001L71.9998 27.001V0.000976563L44.9998 0.000976563ZM67.4998 4.50098V22.501H49.4998V4.50098L67.4998 4.50098ZM35.9998 4.50098V0.000976563L40.4998 0.000976563V9.00098L35.9998 9.00098V18.001H31.4998L31.4998 4.50098H35.9998ZM35.9998 27.001V18.001H40.4998V27.001H35.9998ZM26.9998 36.001V31.501H31.4998V27.001H35.9998L35.9998 36.001H40.4998L40.4998 31.501L62.9998 31.501L62.9998 36.001H44.9998V40.501L31.4998 40.501V36.001H26.9998ZM26.9998 36.001V40.501H8.99976L8.99976 36.001H4.49976L4.49976 40.501H-0.000244141L-0.000244141 31.501H13.4998V36.001H26.9998ZM71.9998 40.501H67.4998V31.501H71.9998V40.501ZM67.4998 40.501H62.9998V49.501H71.9998V45.001H67.4998V40.501ZM49.4998 40.501H58.4998V45.001H53.9998V49.501H49.4998V40.501ZM58.4998 54.001V49.501H53.9998V54.001H49.4998V58.501H40.4998V63.001H53.9998V54.001H58.4998ZM58.4998 54.001H71.9998V58.501H62.9998V63.001H58.4998V54.001ZM40.4998 49.501V54.001H44.9998V45.001L31.4998 45.001L31.4998 49.501L40.4998 49.501Z" fill="#FFD700"/>
<path d="M31.4998 54H35.9998V67.5H53.9998V72H31.4998L31.4998 54ZM71.9998 63V72H58.4998V67.5H67.4998V63L71.9998 63Z" fill="#FFD700"/>
</svg>
